Coordinates
version=1
nRows=7
nColumns=40
inDegrees=yes

Units are S.I. units (second, meters, Newtons, ...)
If the header above contains a line with 'inDegrees', this indicates whether rotational values are in degrees (yes) or radians (no).

endheader
time	pelvis_tilt	pelvis_list	pelvis_rotation	pelvis_tx	pelvis_ty	pelvis_tz	hip_flexion_r	hip_adduction_r	hip_rotation_r	knee_angle_r	knee_angle_r_beta	ankle_angle_r	subtalar_angle_r	mtp_angle_r	hip_flexion_l	hip_adduction_l	hip_rotation_l	knee_angle_l	knee_angle_l_beta	ankle_angle_l	subtalar_angle_l	mtp_angle_l	lumbar_extension	lumbar_bending	lumbar_rotation	arm_flex_r	arm_add_r	arm_rot_r	elbow_flex_r	pro_sup_r	wrist_flex_r	wrist_dev_r	arm_flex_l	arm_add_l	arm_rot_l	elbow_flex_l	pro_sup_l	wrist_flex_l	wrist_dev_l
      0.36000000	     21.66067575	     -0.22713776	      0.91220709	      0.41674607	      0.97144861	     -0.30462309	     -8.93325478	      3.49078439	     -5.07400750	     20.21246174	      0.35277401	     -5.94785804	      0.00000000	      0.00000000	    -16.93136715	     -1.69474022	      4.13197333	     56.24753519	      0.98170469	    -25.92265577	      0.00000000	      0.00000000	    -34.66332164	      2.71829682	     -1.46866679	      2.95633971	    -17.70784471	     13.82263898	     41.45516338	     78.72400365	      0.00000000	      0.00000000	      5.96888985	    -22.81222059	     24.70860713	     41.61717210	     82.21021900	      0.00000000	      0.00000000
      0.36400000	     21.75264222	     -0.22098823	      0.82837978	      0.42245128	      0.97263150	     -0.30415642	     -9.69722557	      3.53792839	     -5.02942800	     19.68105566	      0.34349922	     -5.88152708	      0.00000000	      0.00000000	    -16.40980635	     -1.69199433	      4.08864041	     56.42877011	      0.98486783	    -25.05497076	      0.00000000	      0.00000000	    -34.67964766	      2.64143242	     -1.37156659	      2.96387808	    -17.72360219	     13.84278409	     41.75769288	     78.74725412	      0.00000000	      0.00000000	      5.84474982	    -22.83281423	     24.73769741	     41.42293958	     82.37947363	      0.00000000	      0.00000000
      0.36800000	     22.10181253	     -0.33142491	      0.84003860	      0.42890567	      0.97418435	     -0.30342905	    -11.00522702	      3.78588581	     -5.10653598	     18.68648173	      0.32614063	     -6.11323190	      0.00000000	      0.00000000	    -16.32819838	     -1.92118396	      3.99222290	     56.34432091	      0.98339391	    -24.31238470	      0.00000000	      0.00000000	    -34.92512511	      2.69913380	     -1.25016698	      2.82651598	    -17.72125961	     13.62743822	     42.12305909	     78.17389343	      0.00000000	      0.00000000	      5.64404625	    -22.91097279	     24.80645811	     41.38540248	     82.81849247	      0.00000000	      0.00000000
      0.37200000	     22.15842149	     -0.42151932	      0.55602184	      0.43515400	      0.97513843	     -0.30233674	    -11.76045320	      3.92424707	     -4.90065094	     18.17356594	      0.31718856	     -6.02329853	      0.00000000	      0.00000000	    -15.87937908	     -2.09514832	      3.57675140	     56.38621883	      0.98412517	    -22.92708961	      0.00000000	      0.00000000	    -34.86658579	      2.56016590	     -0.93536292	      2.70384332	    -17.69015847	     13.48646271	     42.44812743	     78.13291473	      0.00000000	      0.00000000	      5.34055164	    -22.94303907	     24.51237019	     41.36681815	     82.92490543	      0.00000000	      0.00000000
      0.37600000	     22.52099663	     -0.55976079	      0.49601643	      0.44175660	      0.97660422	     -0.30155275	    -13.13810514	      4.18408920	     -4.79004683	     17.06943609	      0.29791786	     -6.37153643	      0.00000000	      0.00000000	    -15.82393875	     -2.33109393	      3.35931675	     56.25268524	      0.98179457	    -22.25482138	      0.00000000	      0.00000000	    -35.08748186	      2.60127038	     -0.76786270	      2.56916982	    -17.65600972	     13.36272559	     42.81097405	     78.21606051	      0.00000000	      0.00000000	      5.02219516	    -22.99805631	     24.30261060	     41.40559710	     83.43491754	      0.00000000	      0.00000000
      0.38000000	     22.69657263	     -0.56518747	      0.43547034	      0.44795220	      0.97769150	     -0.30086115	    -14.12397404	      4.27131900	     -4.76485231	     16.32964257	      0.28500603	     -6.40308167	      0.00000000	      0.00000000	    -15.51747980	     -2.42293830	      3.22451041	     56.17333849	      0.98040971	    -21.36305227	      0.00000000	      0.00000000	    -35.15825599	      2.51587936	     -0.67513965	      2.45784531	    -17.65553875	     13.30699982	     43.22758070	     78.26647748	      0.00000000	      0.00000000	      4.74760828	    -23.06887572	     24.07051695	     41.43371671	     83.72061680	      0.00000000	      0.00000000
      0.38400000	     22.94381619	     -0.54219927	      0.35397108	      0.45416543	      0.97886521	     -0.30037223	    -15.29031921	      4.32839716	     -4.60324428	     15.37856787	      0.26840664	     -6.54818428	      0.00000000	      0.00000000	    -15.32344444	     -2.39562302	      3.12641100	     55.98106276	      0.97705386	    -20.64821879	      0.00000000	      0.00000000	    -35.31509658	      2.41037001	     -0.63993882	      2.40624074	    -17.66428694	     13.33375000	     43.60993485	     78.32776765	      0.00000000	      0.00000000	      4.38394213	    -23.09945832	     23.62601020	     41.58539351	     84.18521693	      0.00000000	      0.00000000
